<svg width="39" height="24" viewBox="0 0 39 24" fill="none" xmlns="http://www.w3.org/2000/svg">
<g clip-path="url(#clip0)">
<path d="M21.9688 1.72919L12.2187 22.823H10.0625L0.3125 1.72919H5.40625L11.125 15.573L16.8749 1.72919H21.9688ZM31.1251 1.32294C32.3333 1.32294 33.4375 1.48961 34.4375 1.82294C35.4375 2.15627 36.2812 2.54169 36.9688 2.97919V7.26043C36.2188 6.8021 35.4167 6.37502 34.5625 5.97919C33.7083 5.58335 32.7396 5.38543 31.6563 5.38543C31.1145 5.38543 30.5729 5.46877 30.0312 5.63543C29.5104 5.8021 29.0729 6.0521 28.7188 6.38543C28.3855 6.71877 28.2188 7.14586 28.2188 7.66669C28.2188 8.35418 28.5208 8.87502 29.1251 9.22919C29.7292 9.58335 30.4688 9.93751 31.3437 10.2917L33.9063 11.3542C35.3645 11.9792 36.4375 12.7396 37.1251 13.6355C37.8125 14.5312 38.1563 15.5522 38.1563 16.6979C38.1563 17.9479 37.7917 19.0521 37.0625 20.0104C36.3541 20.9479 35.3959 21.6875 34.1875 22.2292C33 22.7708 31.6771 23.0416 30.2188 23.0416C28.9896 23.0416 27.8125 22.8333 26.6875 22.4167C25.5625 22 24.5833 21.4896 23.75 20.8855V16.6042C24.6667 17.2708 25.6771 17.8333 26.7812 18.2917C27.8855 18.75 29.0625 18.9792 30.3125 18.9792C31.1875 18.9792 31.9375 18.8126 32.5625 18.4792C33.1875 18.1251 33.5 17.6042 33.5 16.9167C33.5 16.375 33.2396 15.9375 32.7188 15.6042C32.2188 15.25 31.6667 14.9584 31.0625 14.7292L27.8437 13.4792C26.2188 12.8542 25.1145 12.0417 24.5312 11.0417C23.9688 10.0208 23.6875 8.89586 23.6875 7.66669C23.6875 6.39586 24.0312 5.29169 24.7188 4.35418C25.4271 3.39586 26.3437 2.65627 27.4688 2.13543C28.5937 1.59377 29.8125 1.32294 31.1251 1.32294Z" fill="white"/>
</g>
<defs>
<clipPath id="clip0">
<rect width="38.6667" height="24" fill="white"/>
</clipPath>
</defs>
</svg>
